# xmcd
#
# Track frame offsets:
#	150
#	18946
#	39797
#	62349
#	89465
#	107472
#	132574
#	153966
#	180957
#	201151
#	226248
#
# Disc length: 3230 seconds
# Revision: 1
# Processed by: cddbd v1.5.2PL0 Copyright (c) Steve Scherf et al.
# Submitted via: dBpowerAMP V12.0
#
DISCID=790c9c0b
DTITLE=Various Artist - One Drop Is Plenty
DYEAR=2011
DGENRE=Blues
TTITLE0=Mighty Sam McClain and Knut Reiersrud - Life
TTITLE1=Knut Reiersrud - Can You Stand the Test of Love
TTITLE2=Knut Reiersrud - One Drop is Plenty
TTITLE3=Knut Reiersrud - You Don't Know Nothing About Love
TTITLE4=Knut Reiersrud - Sweet Soft Kisses in the Rain
TTITLE5=Knut Reiersrud - Learn How to Love You Again
TTITLE6=Knut Reiersrud - Long Time Running
TTITLE7=Knut Reiersrud - I Don't Feel Noways Tired
TTITLE8=Knut Reiersrud - Love One Another
TTITLE9=Knut Reiersrud - Proceed
TTITLE10=Knut Reiersrud - Open Up Heavens Door
EXTD=
EXTT0=
EXTT1=
EXTT2=
EXTT3=
EXTT4=
EXTT5=
EXTT6=
EXTT7=
EXTT8=
EXTT9=
EXTT10=
PLAYORDER=
